<mxfile host="app.diagrams.net" modified="2020-06-04T09:03:02.360Z" agent="Mozilla/5.0 (Windows NT 10.0; Win64; x64) AppleWebKit/537.36 (KHTML, like Gecko) Chrome/83.0.4103.61 Safari/537.36" etag="lI-7KONB3Vhy3DJoDzhg" version="12.9.3" type="github">
  <diagram id="C5RBs43oDa-KdzZeNtuy" name="Page-1">
    <mxGraphModel dx="1422" dy="745" grid="1" gridSize="10" guides="1" tooltips="1" connect="1" arrows="1" fold="1" page="1" pageScale="1" pageWidth="827" pageHeight="1169" math="0" shadow="0">
      <root>
        <mxCell id="WIyWlLk6GJQsqaUBKTNV-0" />
        <mxCell id="WIyWlLk6GJQsqaUBKTNV-1" parent="WIyWlLk6GJQsqaUBKTNV-0" />
        <mxCell id="2XmmwdjmGYe1_YGzH9TI-0" value="" style="edgeStyle=orthogonalEdgeStyle;rounded=0;orthogonalLoop=1;jettySize=auto;html=1;" edge="1" parent="WIyWlLk6GJQsqaUBKTNV-1" source="2XmmwdjmGYe1_YGzH9TI-1" target="2XmmwdjmGYe1_YGzH9TI-3">
          <mxGeometry relative="1" as="geometry" />
        </mxCell>
        <mxCell id="2XmmwdjmGYe1_YGzH9TI-1" value="PR raised" style="rounded=1;whiteSpace=wrap;html=1;" vertex="1" parent="WIyWlLk6GJQsqaUBKTNV-1">
          <mxGeometry x="40" y="120" width="110" height="60" as="geometry" />
        </mxCell>
        <mxCell id="2XmmwdjmGYe1_YGzH9TI-2" value="" style="edgeStyle=orthogonalEdgeStyle;rounded=0;orthogonalLoop=1;jettySize=auto;html=1;" edge="1" parent="WIyWlLk6GJQsqaUBKTNV-1" source="2XmmwdjmGYe1_YGzH9TI-3" target="2XmmwdjmGYe1_YGzH9TI-5">
          <mxGeometry relative="1" as="geometry" />
        </mxCell>
        <mxCell id="2XmmwdjmGYe1_YGzH9TI-3" value="Job trigger via webhook" style="rounded=1;whiteSpace=wrap;html=1;" vertex="1" parent="WIyWlLk6GJQsqaUBKTNV-1">
          <mxGeometry x="230" y="120" width="110" height="60" as="geometry" />
        </mxCell>
        <mxCell id="2XmmwdjmGYe1_YGzH9TI-4" value="" style="edgeStyle=orthogonalEdgeStyle;rounded=0;orthogonalLoop=1;jettySize=auto;html=1;" edge="1" parent="WIyWlLk6GJQsqaUBKTNV-1" source="2XmmwdjmGYe1_YGzH9TI-5" target="2XmmwdjmGYe1_YGzH9TI-6">
          <mxGeometry relative="1" as="geometry" />
        </mxCell>
        <mxCell id="2XmmwdjmGYe1_YGzH9TI-5" value="Pipeline to do the terraform plan" style="rounded=1;whiteSpace=wrap;html=1;" vertex="1" parent="WIyWlLk6GJQsqaUBKTNV-1">
          <mxGeometry x="420" y="120" width="110" height="60" as="geometry" />
        </mxCell>
        <mxCell id="2XmmwdjmGYe1_YGzH9TI-6" value="terrafor-compliance&lt;br&gt;Unit testing" style="rounded=1;whiteSpace=wrap;html=1;" vertex="1" parent="WIyWlLk6GJQsqaUBKTNV-1">
          <mxGeometry x="610" y="120" width="110" height="60" as="geometry" />
        </mxCell>
        <mxCell id="2XmmwdjmGYe1_YGzH9TI-7" value="" style="edgeStyle=orthogonalEdgeStyle;rounded=0;orthogonalLoop=1;jettySize=auto;html=1;" edge="1" parent="WIyWlLk6GJQsqaUBKTNV-1" source="2XmmwdjmGYe1_YGzH9TI-8" target="2XmmwdjmGYe1_YGzH9TI-9">
          <mxGeometry relative="1" as="geometry" />
        </mxCell>
        <mxCell id="2XmmwdjmGYe1_YGzH9TI-8" value="Notify bitbucket with results" style="rounded=1;whiteSpace=wrap;html=1;" vertex="1" parent="WIyWlLk6GJQsqaUBKTNV-1">
          <mxGeometry x="510" y="250" width="120" height="60" as="geometry" />
        </mxCell>
        <mxCell id="2XmmwdjmGYe1_YGzH9TI-9" value="Approve/Decline based on the result" style="rounded=1;whiteSpace=wrap;html=1;" vertex="1" parent="WIyWlLk6GJQsqaUBKTNV-1">
          <mxGeometry x="510" y="390" width="120" height="60" as="geometry" />
        </mxCell>
        <mxCell id="2XmmwdjmGYe1_YGzH9TI-10" value="" style="endArrow=none;html=1;" edge="1" parent="WIyWlLk6GJQsqaUBKTNV-1">
          <mxGeometry width="50" height="50" relative="1" as="geometry">
            <mxPoint x="680" y="280" as="sourcePoint" />
            <mxPoint x="680" y="180" as="targetPoint" />
          </mxGeometry>
        </mxCell>
        <mxCell id="2XmmwdjmGYe1_YGzH9TI-11" value="" style="endArrow=classic;html=1;entryX=1;entryY=0.5;entryDx=0;entryDy=0;" edge="1" parent="WIyWlLk6GJQsqaUBKTNV-1" target="2XmmwdjmGYe1_YGzH9TI-8">
          <mxGeometry width="50" height="50" relative="1" as="geometry">
            <mxPoint x="680" y="279.5" as="sourcePoint" />
            <mxPoint x="640" y="279.5" as="targetPoint" />
          </mxGeometry>
        </mxCell>
        <mxCell id="2XmmwdjmGYe1_YGzH9TI-12" value="" style="endArrow=none;html=1;" edge="1" parent="WIyWlLk6GJQsqaUBKTNV-1">
          <mxGeometry width="50" height="50" relative="1" as="geometry">
            <mxPoint x="480" y="280" as="sourcePoint" />
            <mxPoint x="480" y="180" as="targetPoint" />
          </mxGeometry>
        </mxCell>
        <mxCell id="2XmmwdjmGYe1_YGzH9TI-13" value="" style="endArrow=classic;html=1;" edge="1" parent="WIyWlLk6GJQsqaUBKTNV-1">
          <mxGeometry width="50" height="50" relative="1" as="geometry">
            <mxPoint x="480" y="279.5" as="sourcePoint" />
            <mxPoint x="510" y="280" as="targetPoint" />
          </mxGeometry>
        </mxCell>
        <mxCell id="2XmmwdjmGYe1_YGzH9TI-14" value="Success" style="text;html=1;strokeColor=none;fillColor=none;align=center;verticalAlign=middle;whiteSpace=wrap;rounded=0;" vertex="1" parent="WIyWlLk6GJQsqaUBKTNV-1">
          <mxGeometry x="550" y="120" width="40" height="20" as="geometry" />
        </mxCell>
        <mxCell id="2XmmwdjmGYe1_YGzH9TI-15" value="failed" style="text;html=1;strokeColor=none;fillColor=none;align=center;verticalAlign=middle;whiteSpace=wrap;rounded=0;" vertex="1" parent="WIyWlLk6GJQsqaUBKTNV-1">
          <mxGeometry x="430" y="220" width="40" height="20" as="geometry" />
        </mxCell>
      </root>
    </mxGraphModel>
  </diagram>
</mxfile>
